# xmcd CD database file
#
# Track frame offsets:
#	150
#	12840
#	25492
#	39575
#	54340
#	68180
#	79220
#	93375
#	107257
#	124375
#	135060
#	148935
#	168160
#	186930
#	201934
#
# Disc length: 2890 seconds
#
# Revision: 0
# Processed by: cddbd v1.4PL0 Copyright (c) Steve Scherf et al.
# Submitted via: CDex 1.40Beta8
#
DISCID=c90b480f
DTITLE=Peões - Peões and Cowboys
DYEAR=1900
DGENRE=Country
TTITLE0=Chitãozinho and Xororó - Rebola
TTITLE1=Rionegro and Solimões - Bobeou, tá na poeira
TTITLE2=Leandro and Leonardo - Não aprendi a dizer adeus
TTITLE3=Daniel - Eu tô no meio
TTITLE4=André and Adriano - Água de coco
TTITLE5=Cezar and Paulinho - Pé de bode
TTITLE6=Sérgio Reis - Cunhada boa
TTITLE7=Rick and Renner - Peão que é peão
TTITLE8=Roberta Miranda - Majestade, o sabiá
TTITLE9=Teodoro and Sampaio - Meu negócio é mulher
TTITLE10=Tonico and Tinoco - Moreninha linda
TTITLE11=Ataíde and Alexandre - Laço aberto
TTITLE12=Emílio and Eduardo - Você virou saudade
TTITLE13=João Paulo and Daniel - Eu me amarrei
TTITLE14=Chrystian and Ralf - Poeira no vento
EXTD=ID3G: 2
EXTT0=
EXTT1=
EXTT2=
EXTT3=
EXTT4=
EXTT5=
EXTT6=
EXTT7=
EXTT8=
EXTT9=
EXTT10=
EXTT11=
EXTT12=
EXTT13=
EXTT14=
PLAYORDER=
